# MagicaVoxel @ Ephtracy

# group
o 

# material
mtllib wall-ad.mtl
usemtl palette

# normals
vn -1 0 0
vn 1 0 0
vn 0 0 1
vn 0 0 -1
vn 0 -1 0
vn 0 1 0

# texcoords
vt 0.0371094 0.5
vt 0.0683594 0.5

# verts
v 1.8 0.7 -17.7
v 1.8 0.7 -18.3
v 1.8 1.1 -17.8
v 1.8 1.1 -17.9
v 1.8 1.1 -18
v 1.8 1.1 -18.1
v 1.8 1.1 -18.2
v 1.8 1.1 -18.3
v 1.8 1.2 -17.7
v 1.8 1.2 -17.8
v 1.8 1.2 -17.9
v 1.8 1.2 -18
v 1.8 1.2 -18.1
v 1.8 1.2 -18.2
v 2.2 1.1 -17.7
v 2.2 1.1 -17.8
v 2.2 1.1 -17.9
v 2.2 1.1 -18
v 2.2 1.1 -18.1
v 2.2 1.1 -18.2
v 2.2 1.2 -17.7
v 2.2 1.2 -17.8
v 2.2 1.2 -17.9
v 2.2 1.2 -18
v 2.2 1.2 -18.1
v 2.2 1.2 -18.2
v 1.9 1.1 -17.7
v 1.9 1.1 -17.8
v 1.9 1.1 -17.9
v 1.9 1.1 -18
v 1.9 1.1 -18.1
v 1.9 1.1 -18.2
v 1.9 1.2 -17.7
v 1.9 1.2 -17.8
v 1.9 1.2 -17.9
v 1.9 1.2 -18
v 1.9 1.2 -18.1
v 1.9 1.2 -18.2
v 2.3 0.7 -17.7
v 2.3 0.7 -18.3
v 2.3 1.1 -17.8
v 2.3 1.1 -17.9
v 2.3 1.1 -18
v 2.3 1.1 -18.1
v 2.3 1.1 -18.2
v 2.3 1.1 -18.3
v 2.3 1.2 -17.7
v 2.3 1.2 -17.8
v 2.3 1.2 -17.9
v 2.3 1.2 -18
v 2.3 1.2 -18.1
v 2.3 1.2 -18.2
v 1.8 0.7 -17.7
v 1.8 1.2 -17.7
v 1.9 1 -17.7
v 1.9 1.1 -17.7
v 1.9 1.2 -17.7
v 2.2 1 -17.7
v 2.2 1.1 -17.7
v 2.2 1.2 -17.7
v 2.3 0.7 -17.7
v 2.3 1.2 -17.7
v 1.8 1.1 -17.9
v 1.8 1.2 -17.9
v 1.9 1.1 -17.9
v 1.9 1.2 -17.9
v 2.2 1.1 -17.9
v 2.2 1.2 -17.9
v 2.3 1.1 -17.9
v 2.3 1.2 -17.9
v 1.8 1.1 -18.1
v 1.8 1.2 -18.1
v 1.9 1.1 -18.1
v 1.9 1.2 -18.1
v 2.2 1.1 -18.1
v 2.2 1.2 -18.1
v 2.3 1.1 -18.1
v 2.3 1.2 -18.1
v 1.8 1.1 -17.8
v 1.8 1.2 -17.8
v 1.9 1.1 -17.8
v 1.9 1.2 -17.8
v 2.2 1.1 -17.8
v 2.2 1.2 -17.8
v 2.3 1.1 -17.8
v 2.3 1.2 -17.8
v 1.8 1.1 -18
v 1.8 1.2 -18
v 1.9 1.1 -18
v 1.9 1.2 -18
v 2.2 1.1 -18
v 2.2 1.2 -18
v 2.3 1.1 -18
v 2.3 1.2 -18
v 1.8 1.1 -18.2
v 1.8 1.2 -18.2
v 1.9 1.1 -18.2
v 1.9 1.2 -18.2
v 2.2 1.1 -18.2
v 2.2 1.2 -18.2
v 2.3 1.1 -18.2
v 2.3 1.2 -18.2
v 1.8 0.7 -18.3
v 1.8 1.1 -18.3
v 1.9 1 -18.3
v 1.9 1.1 -18.3
v 2.2 1 -18.3
v 2.2 1.1 -18.3
v 2.3 0.7 -18.3
v 2.3 1.1 -18.3
v 1.8 0.7 -17.7
v 2.3 0.7 -17.7
v 1.8 0.7 -18.3
v 2.3 0.7 -18.3
v 1.9 1.1 -17.7
v 2.2 1.1 -17.7
v 1.8 1.1 -17.8
v 1.9 1.1 -17.8
v 2.2 1.1 -17.8
v 2.3 1.1 -17.8
v 1.8 1.1 -17.9
v 1.9 1.1 -17.9
v 2.2 1.1 -17.9
v 2.3 1.1 -17.9
v 1.8 1.1 -18
v 1.9 1.1 -18
v 2.2 1.1 -18
v 2.3 1.1 -18
v 1.8 1.1 -18.1
v 1.9 1.1 -18.1
v 2.2 1.1 -18.1
v 2.3 1.1 -18.1
v 1.8 1.1 -18.2
v 1.9 1.1 -18.2
v 2.2 1.1 -18.2
v 2.3 1.1 -18.2
v 1.8 1.1 -18.3
v 1.9 1.1 -18.3
v 2.2 1.1 -18.3
v 2.3 1.1 -18.3
v 1.8 1.2 -17.7
v 1.9 1.2 -17.7
v 2.2 1.2 -17.7
v 2.3 1.2 -17.7
v 1.8 1.2 -17.8
v 1.9 1.2 -17.8
v 2.2 1.2 -17.8
v 2.3 1.2 -17.8
v 1.8 1.2 -17.9
v 1.9 1.2 -17.9
v 2.2 1.2 -17.9
v 2.3 1.2 -17.9
v 1.8 1.2 -18
v 1.9 1.2 -18
v 2.2 1.2 -18
v 2.3 1.2 -18
v 1.8 1.2 -18.1
v 1.9 1.2 -18.1
v 2.2 1.2 -18.1
v 2.3 1.2 -18.1
v 1.8 1.2 -18.2
v 1.9 1.2 -18.2
v 2.2 1.2 -18.2
v 2.3 1.2 -18.2

# faces
f 3/1/1 2/1/1 1/1/1
f 4/1/1 2/1/1 3/1/1
f 5/1/1 2/1/1 4/1/1
f 6/1/1 2/1/1 5/1/1
f 7/1/1 2/1/1 6/1/1
f 8/1/1 2/1/1 7/1/1
f 9/1/1 3/1/1 1/1/1
f 10/1/1 3/1/1 9/1/1
f 11/1/1 5/1/1 4/1/1
f 12/1/1 5/1/1 11/1/1
f 13/1/1 7/1/1 6/1/1
f 14/1/1 7/1/1 13/1/1
f 21/1/1 16/1/1 15/1/1
f 22/1/1 16/1/1 21/1/1
f 23/1/1 18/1/1 17/1/1
f 24/1/1 18/1/1 23/1/1
f 25/1/1 20/1/1 19/1/1
f 26/1/1 20/1/1 25/1/1
f 27/1/2 28/1/2 33/1/2
f 33/1/2 28/1/2 34/1/2
f 29/1/2 30/1/2 35/1/2
f 35/1/2 30/1/2 36/1/2
f 31/1/2 32/1/2 37/1/2
f 37/1/2 32/1/2 38/1/2
f 39/1/2 40/1/2 41/1/2
f 41/1/2 40/1/2 42/1/2
f 42/1/2 40/1/2 43/1/2
f 43/1/2 40/1/2 44/1/2
f 44/1/2 40/1/2 45/1/2
f 45/1/2 40/1/2 46/1/2
f 39/1/2 41/1/2 47/1/2
f 47/1/2 41/1/2 48/1/2
f 42/1/2 43/1/2 49/1/2
f 49/1/2 43/1/2 50/1/2
f 44/1/2 45/1/2 51/1/2
f 51/1/2 45/1/2 52/1/2
f 55/1/3 54/1/3 53/1/3
f 56/1/3 54/1/3 55/1/3
f 57/1/3 54/1/3 56/1/3
f 58/1/3 55/1/3 53/1/3
f 58/2/3 56/2/3 55/2/3
f 59/2/3 56/2/3 58/2/3
f 61/1/3 58/1/3 53/1/3
f 61/1/3 60/1/3 59/1/3
f 61/1/3 59/1/3 58/1/3
f 62/1/3 60/1/3 61/1/3
f 65/1/3 64/1/3 63/1/3
f 66/1/3 64/1/3 65/1/3
f 69/1/3 68/1/3 67/1/3
f 70/1/3 68/1/3 69/1/3
f 73/1/3 72/1/3 71/1/3
f 74/1/3 72/1/3 73/1/3
f 77/1/3 76/1/3 75/1/3
f 78/1/3 76/1/3 77/1/3
f 79/1/4 80/1/4 81/1/4
f 81/1/4 80/1/4 82/1/4
f 83/1/4 84/1/4 85/1/4
f 85/1/4 84/1/4 86/1/4
f 87/1/4 88/1/4 89/1/4
f 89/1/4 88/1/4 90/1/4
f 91/1/4 92/1/4 93/1/4
f 93/1/4 92/1/4 94/1/4
f 95/1/4 96/1/4 97/1/4
f 97/1/4 96/1/4 98/1/4
f 99/1/4 100/1/4 101/1/4
f 101/1/4 100/1/4 102/1/4
f 103/1/4 104/1/4 105/1/4
f 105/1/4 104/1/4 106/1/4
f 103/1/4 105/1/4 107/1/4
f 105/2/4 106/2/4 107/2/4
f 107/2/4 106/2/4 108/2/4
f 103/1/4 107/1/4 109/1/4
f 107/1/4 108/1/4 109/1/4
f 109/1/4 108/1/4 110/1/4
f 113/1/5 112/1/5 111/1/5
f 114/1/5 112/1/5 113/1/5
f 115/2/6 116/2/6 118/2/6
f 118/2/6 116/2/6 119/2/6
f 117/1/6 118/1/6 121/1/6
f 118/2/6 119/2/6 122/2/6
f 121/1/6 118/1/6 122/1/6
f 119/1/6 120/1/6 123/1/6
f 122/2/6 119/2/6 123/2/6
f 123/1/6 120/1/6 124/1/6
f 122/2/6 123/2/6 126/2/6
f 126/2/6 123/2/6 127/2/6
f 125/1/6 126/1/6 129/1/6
f 126/2/6 127/2/6 130/2/6
f 129/1/6 126/1/6 130/1/6
f 127/1/6 128/1/6 131/1/6
f 130/2/6 127/2/6 131/2/6
f 131/1/6 128/1/6 132/1/6
f 130/2/6 131/2/6 134/2/6
f 134/2/6 131/2/6 135/2/6
f 133/1/6 134/1/6 137/1/6
f 134/2/6 135/2/6 138/2/6
f 137/1/6 134/1/6 138/1/6
f 135/1/6 136/1/6 139/1/6
f 138/2/6 135/2/6 139/2/6
f 139/1/6 136/1/6 140/1/6
f 141/1/6 142/1/6 145/1/6
f 145/1/6 142/1/6 146/1/6
f 143/1/6 144/1/6 147/1/6
f 147/1/6 144/1/6 148/1/6
f 149/1/6 150/1/6 153/1/6
f 153/1/6 150/1/6 154/1/6
f 151/1/6 152/1/6 155/1/6
f 155/1/6 152/1/6 156/1/6
f 157/1/6 158/1/6 161/1/6
f 161/1/6 158/1/6 162/1/6
f 159/1/6 160/1/6 163/1/6
f 163/1/6 160/1/6 164/1/6
