# Blender 3.3.0
# www.blender.org
mtllib arrow-ammo.mtl
o arrow
v -0.200000 -0.200000 0.500000
v -0.200000 -0.200000 0.300000
v -0.200000 -0.200000 -0.200000
v -0.200000 -0.200000 -0.300000
v -0.200000 0.200000 0.500000
v -0.200000 0.200000 0.300000
v -0.200000 0.200000 -0.200000
v -0.200000 0.200000 -0.300000
v -0.100000 -0.200000 -0.300000
v -0.100000 -0.200000 -0.400000
v -0.100000 -0.100000 -0.400000
v -0.100000 -0.100000 -0.500000
v -0.100000 0.100000 -0.400000
v -0.100000 0.100000 -0.500000
v -0.100000 0.200000 -0.300000
v -0.100000 0.200000 -0.400000
v 0.100000 -0.200000 -0.300000
v 0.100000 -0.200000 -0.400000
v 0.100000 -0.100000 -0.400000
v 0.100000 -0.100000 -0.500000
v 0.100000 0.100000 -0.400000
v 0.100000 0.100000 -0.500000
v 0.100000 0.200000 -0.300000
v 0.100000 0.200000 -0.400000
v 0.200000 -0.200000 0.500000
v 0.200000 -0.200000 0.300000
v 0.200000 -0.200000 -0.200000
v 0.200000 -0.200000 -0.300000
v 0.200000 0.200000 0.500000
v 0.200000 0.200000 0.300000
v 0.200000 0.200000 -0.200000
v 0.200000 0.200000 -0.300000
v -0.200000 -0.200000 0.500000
v -0.200000 0.200000 0.500000
v 0.200000 -0.200000 0.500000
v 0.200000 0.200000 0.500000
v -0.200000 -0.200000 -0.300000
v -0.200000 0.200000 -0.300000
v -0.100000 -0.200000 -0.300000
v -0.100000 0.200000 -0.300000
v 0.100000 -0.200000 -0.300000
v 0.100000 0.200000 -0.300000
v 0.200000 -0.200000 -0.300000
v 0.200000 0.200000 -0.300000
v -0.100000 -0.200000 -0.400000
v -0.100000 -0.100000 -0.400000
v -0.100000 0.100000 -0.400000
v -0.100000 0.200000 -0.400000
v 0.100000 -0.200000 -0.400000
v 0.100000 -0.100000 -0.400000
v 0.100000 0.100000 -0.400000
v 0.100000 0.200000 -0.400000
v -0.100000 -0.100000 -0.500000
v -0.100000 0.100000 -0.500000
v 0.100000 -0.100000 -0.500000
v 0.100000 0.100000 -0.500000
v -0.200000 -0.200000 0.500000
v 0.200000 -0.200000 0.500000
v -0.200000 -0.200000 0.300000
v 0.200000 -0.200000 0.300000
v -0.200000 -0.200000 -0.200000
v 0.200000 -0.200000 -0.200000
v -0.200000 -0.200000 -0.300000
v -0.100000 -0.200000 -0.300000
v 0.100000 -0.200000 -0.300000
v 0.200000 -0.200000 -0.300000
v -0.100000 -0.200000 -0.400000
v 0.100000 -0.200000 -0.400000
v -0.100000 -0.100000 -0.400000
v 0.100000 -0.100000 -0.400000
v -0.100000 -0.100000 -0.500000
v 0.100000 -0.100000 -0.500000
v -0.100000 0.100000 -0.400000
v 0.100000 0.100000 -0.400000
v -0.100000 0.100000 -0.500000
v 0.100000 0.100000 -0.500000
v -0.200000 0.200000 0.500000
v 0.200000 0.200000 0.500000
v -0.200000 0.200000 0.300000
v 0.200000 0.200000 0.300000
v -0.200000 0.200000 -0.200000
v 0.200000 0.200000 -0.200000
v -0.200000 0.200000 -0.300000
v -0.100000 0.200000 -0.300000
v 0.100000 0.200000 -0.300000
v 0.200000 0.200000 -0.300000
v -0.100000 0.200000 -0.400000
v 0.100000 0.200000 -0.400000
vn -1.0000 -0.0000 -0.0000
vn 1.0000 -0.0000 -0.0000
vn -0.0000 -0.0000 1.0000
vn -0.0000 -0.0000 -1.0000
vn -0.0000 -1.0000 -0.0000
vn -0.0000 1.0000 -0.0000
vt 0.068359 0.500000
vt 0.005859 0.500000
vt 0.068359 0.500000
vt 0.037109 0.500000
vt 0.005859 0.500000
vt 0.037109 0.500000
vt 0.068359 0.500000
vt 0.068359 0.500000
vt 0.005859 0.500000
vt 0.005859 0.500000
vt 0.037109 0.500000
vt 0.037109 0.500000
vt 0.037109 0.500000
vt 0.037109 0.500000
vt 0.037109 0.500000
vt 0.037109 0.500000
vt 0.037109 0.500000
vt 0.037109 0.500000
vt 0.037109 0.500000
vt 0.037109 0.500000
vt 0.037109 0.500000
vt 0.037109 0.500000
vt 0.037109 0.500000
vt 0.037109 0.500000
vt 0.037109 0.500000
vt 0.037109 0.500000
vt 0.037109 0.500000
vt 0.037109 0.500000
vt 0.068359 0.500000
vt 0.005859 0.500000
vt 0.068359 0.500000
vt 0.037109 0.500000
vt 0.005859 0.500000
vt 0.037109 0.500000
vt 0.068359 0.500000
vt 0.068359 0.500000
vt 0.005859 0.500000
vt 0.005859 0.500000
vt 0.037109 0.500000
vt 0.037109 0.500000
vt 0.068359 0.500000
vt 0.068359 0.500000
vt 0.068359 0.500000
vt 0.068359 0.500000
vt 0.037109 0.500000
vt 0.037109 0.500000
vt 0.037109 0.500000
vt 0.037109 0.500000
vt 0.037109 0.500000
vt 0.037109 0.500000
vt 0.037109 0.500000
vt 0.037109 0.500000
vt 0.037109 0.500000
vt 0.037109 0.500000
vt 0.037109 0.500000
vt 0.037109 0.500000
vt 0.037109 0.500000
vt 0.037109 0.500000
vt 0.037109 0.500000
vt 0.037109 0.500000
vt 0.037109 0.500000
vt 0.037109 0.500000
vt 0.037109 0.500000
vt 0.037109 0.500000
vt 0.068359 0.500000
vt 0.068359 0.500000
vt 0.068359 0.500000
vt 0.005859 0.500000
vt 0.068359 0.500000
vt 0.005859 0.500000
vt 0.005859 0.500000
vt 0.037109 0.500000
vt 0.005859 0.500000
vt 0.037109 0.500000
vt 0.037109 0.500000
vt 0.037109 0.500000
vt 0.037109 0.500000
vt 0.037109 0.500000
vt 0.037109 0.500000
vt 0.037109 0.500000
vt 0.037109 0.500000
vt 0.037109 0.500000
vt 0.037109 0.500000
vt 0.037109 0.500000
vt 0.037109 0.500000
vt 0.037109 0.500000
vt 0.037109 0.500000
vt 0.037109 0.500000
vt 0.068359 0.500000
vt 0.068359 0.500000
vt 0.068359 0.500000
vt 0.005859 0.500000
vt 0.068359 0.500000
vt 0.005859 0.500000
vt 0.005859 0.500000
vt 0.037109 0.500000
vt 0.005859 0.500000
vt 0.037109 0.500000
vt 0.037109 0.500000
vt 0.037109 0.500000
vt 0.037109 0.500000
vt 0.037109 0.500000
vt 0.037109 0.500000
vt 0.037109 0.500000
s 0
usemtl arrow
f 5/7/1 2/3/1 1/1/1
f 6/9/1 3/5/1 2/2/1
f 6/8/1 2/3/1 5/7/1
f 7/11/1 4/6/1 3/4/1
f 7/10/1 3/5/1 6/9/1
f 8/12/1 4/6/1 7/11/1
f 11/15/1 10/14/1 9/13/1
f 13/17/1 11/15/1 9/13/1
f 13/17/1 12/16/1 11/15/1
f 14/18/1 12/16/1 13/17/1
f 15/19/1 13/17/1 9/13/1
f 16/20/1 13/17/1 15/19/1
f 17/21/2 18/22/2 19/23/2
f 17/21/2 19/23/2 21/25/2
f 19/23/2 20/24/2 21/25/2
f 21/25/2 20/24/2 22/26/2
f 17/21/2 21/25/2 23/27/2
f 23/27/2 21/25/2 24/28/2
f 25/29/2 26/31/2 29/35/2
f 26/30/2 27/33/2 30/37/2
f 29/35/2 26/31/2 30/36/2
f 27/32/2 28/34/2 31/39/2
f 30/37/2 27/33/2 31/38/2
f 31/39/2 28/34/2 32/40/2
f 35/43/3 34/42/3 33/41/3
f 36/44/3 34/42/3 35/43/3
f 37/45/4 38/46/4 39/47/4
f 39/47/4 38/46/4 40/48/4
f 41/49/4 42/50/4 43/51/4
f 43/51/4 42/50/4 44/52/4
f 45/53/4 46/54/4 49/57/4
f 49/57/4 46/54/4 50/58/4
f 47/55/4 48/56/4 51/59/4
f 51/59/4 48/56/4 52/60/4
f 53/61/4 54/62/4 55/63/4
f 55/63/4 54/62/4 56/64/4
f 59/67/5 58/66/5 57/65/5
f 60/69/5 58/66/5 59/67/5
f 61/71/5 60/70/5 59/68/5
f 62/73/5 60/70/5 61/71/5
f 63/75/5 62/74/5 61/72/5
f 64/76/5 62/74/5 63/75/5
f 65/77/5 62/74/5 64/76/5
f 66/78/5 62/74/5 65/77/5
f 67/79/5 65/77/5 64/76/5
f 68/80/5 65/77/5 67/79/5
f 71/83/5 70/82/5 69/81/5
f 72/84/5 70/82/5 71/83/5
f 73/85/6 74/86/6 75/87/6
f 75/87/6 74/86/6 76/88/6
f 77/89/6 78/90/6 79/91/6
f 79/91/6 78/90/6 80/93/6
f 79/92/6 80/94/6 81/95/6
f 81/95/6 80/94/6 82/97/6
f 81/96/6 82/98/6 83/99/6
f 83/99/6 82/98/6 84/100/6
f 84/100/6 82/98/6 85/101/6
f 85/101/6 82/98/6 86/102/6
f 84/100/6 85/101/6 87/103/6
f 87/103/6 85/101/6 88/104/6
