# MagicaVoxel @ Ephtracy

# group
o 

# material
mtllib arrow.mtl
usemtl palette

# normals
vn -1 0 0
vn 1 0 0
vn 0 0 1
vn 0 0 -1
vn 0 -1 0
vn 0 1 0

# texcoords
vt 0.00585938 0.5
vt 0.0371094 0.5
vt 0.0683594 0.5

# verts
v -0.2 0 0.5
v -0.2 0 0.3
v -0.2 0 -0.2
v -0.2 0 -0.3
v -0.2 0.4 0.5
v -0.2 0.4 0.3
v -0.2 0.4 -0.2
v -0.2 0.4 -0.3
v -0.1 0 -0.3
v -0.1 0 -0.4
v -0.1 0.1 -0.4
v -0.1 0.1 -0.5
v -0.1 0.3 -0.4
v -0.1 0.3 -0.5
v -0.1 0.4 -0.3
v -0.1 0.4 -0.4
v 0.1 0 -0.3
v 0.1 0 -0.4
v 0.1 0.1 -0.4
v 0.1 0.1 -0.5
v 0.1 0.3 -0.4
v 0.1 0.3 -0.5
v 0.1 0.4 -0.3
v 0.1 0.4 -0.4
v 0.2 0 0.5
v 0.2 0 0.3
v 0.2 0 -0.2
v 0.2 0 -0.3
v 0.2 0.4 0.5
v 0.2 0.4 0.3
v 0.2 0.4 -0.2
v 0.2 0.4 -0.3
v -0.2 0 0.5
v -0.2 0.4 0.5
v 0.2 0 0.5
v 0.2 0.4 0.5
v -0.2 0 -0.3
v -0.2 0.4 -0.3
v -0.1 0 -0.3
v -0.1 0.4 -0.3
v 0.1 0 -0.3
v 0.1 0.4 -0.3
v 0.2 0 -0.3
v 0.2 0.4 -0.3
v -0.1 0 -0.4
v -0.1 0.1 -0.4
v -0.1 0.3 -0.4
v -0.1 0.4 -0.4
v 0.1 0 -0.4
v 0.1 0.1 -0.4
v 0.1 0.3 -0.4
v 0.1 0.4 -0.4
v -0.1 0.1 -0.5
v -0.1 0.3 -0.5
v 0.1 0.1 -0.5
v 0.1 0.3 -0.5
v -0.2 0 0.5
v 0.2 0 0.5
v -0.2 0 0.3
v 0.2 0 0.3
v -0.2 0 -0.2
v 0.2 0 -0.2
v -0.2 0 -0.3
v -0.1 0 -0.3
v 0.1 0 -0.3
v 0.2 0 -0.3
v -0.1 0 -0.4
v 0.1 0 -0.4
v -0.1 0.1 -0.4
v 0.1 0.1 -0.4
v -0.1 0.1 -0.5
v 0.1 0.1 -0.5
v -0.1 0.3 -0.4
v 0.1 0.3 -0.4
v -0.1 0.3 -0.5
v 0.1 0.3 -0.5
v -0.2 0.4 0.5
v 0.2 0.4 0.5
v -0.2 0.4 0.3
v 0.2 0.4 0.3
v -0.2 0.4 -0.2
v 0.2 0.4 -0.2
v -0.2 0.4 -0.3
v -0.1 0.4 -0.3
v 0.1 0.4 -0.3
v 0.2 0.4 -0.3
v -0.1 0.4 -0.4
v 0.1 0.4 -0.4

# faces
f 5/3/1 2/3/1 1/3/1
f 6/1/1 3/1/1 2/1/1
f 6/3/1 2/3/1 5/3/1
f 7/2/1 4/2/1 3/2/1
f 7/1/1 3/1/1 6/1/1
f 8/2/1 4/2/1 7/2/1
f 11/2/1 10/2/1 9/2/1
f 13/2/1 11/2/1 9/2/1
f 13/2/1 12/2/1 11/2/1
f 14/2/1 12/2/1 13/2/1
f 15/2/1 13/2/1 9/2/1
f 16/2/1 13/2/1 15/2/1
f 17/2/2 18/2/2 19/2/2
f 17/2/2 19/2/2 21/2/2
f 19/2/2 20/2/2 21/2/2
f 21/2/2 20/2/2 22/2/2
f 17/2/2 21/2/2 23/2/2
f 23/2/2 21/2/2 24/2/2
f 25/3/2 26/3/2 29/3/2
f 26/1/2 27/1/2 30/1/2
f 29/3/2 26/3/2 30/3/2
f 27/2/2 28/2/2 31/2/2
f 30/1/2 27/1/2 31/1/2
f 31/2/2 28/2/2 32/2/2
f 35/3/3 34/3/3 33/3/3
f 36/3/3 34/3/3 35/3/3
f 37/2/4 38/2/4 39/2/4
f 39/2/4 38/2/4 40/2/4
f 41/2/4 42/2/4 43/2/4
f 43/2/4 42/2/4 44/2/4
f 45/2/4 46/2/4 49/2/4
f 49/2/4 46/2/4 50/2/4
f 47/2/4 48/2/4 51/2/4
f 51/2/4 48/2/4 52/2/4
f 53/2/4 54/2/4 55/2/4
f 55/2/4 54/2/4 56/2/4
f 59/3/5 58/3/5 57/3/5
f 60/3/5 58/3/5 59/3/5
f 61/1/5 60/1/5 59/1/5
f 62/1/5 60/1/5 61/1/5
f 63/2/5 62/2/5 61/2/5
f 64/2/5 62/2/5 63/2/5
f 65/2/5 62/2/5 64/2/5
f 66/2/5 62/2/5 65/2/5
f 67/2/5 65/2/5 64/2/5
f 68/2/5 65/2/5 67/2/5
f 71/2/5 70/2/5 69/2/5
f 72/2/5 70/2/5 71/2/5
f 73/2/6 74/2/6 75/2/6
f 75/2/6 74/2/6 76/2/6
f 77/3/6 78/3/6 79/3/6
f 79/3/6 78/3/6 80/3/6
f 79/1/6 80/1/6 81/1/6
f 81/1/6 80/1/6 82/1/6
f 81/2/6 82/2/6 83/2/6
f 83/2/6 82/2/6 84/2/6
f 84/2/6 82/2/6 85/2/6
f 85/2/6 82/2/6 86/2/6
f 84/2/6 85/2/6 87/2/6
f 87/2/6 85/2/6 88/2/6
