# MagicaVoxel @ Ephtracy

# group
o 

# material
mtllib wall-ad-glass.mtl
usemtl palette

# normals
vn -1 0 0
vn 1 0 0
vn 0 0 1
vn 0 0 -1
vn 0 -1 0
vn 0 1 0

# texcoords
vt 0.00585938 0.5
vt 0.0371094 0.5
vt 0.0683594 0.5

# verts
v 0 0 0
v 0 0 -2.5
v 0 0.4 0
v 0 0.4 -2.5
v 1 0.4 0
v 1 0.4 -0.6
v 1 0.8 -0.1
v 1 0.8 -0.2
v 1 0.8 -0.3
v 1 0.8 -0.4
v 1 0.8 -0.5
v 1 0.8 -0.6
v 1 0.9 0
v 1 0.9 -0.1
v 1 0.9 -0.2
v 1 0.9 -0.3
v 1 0.9 -0.4
v 1 0.9 -0.5
v 1.4 0.8 0
v 1.4 0.8 -0.1
v 1.4 0.8 -0.2
v 1.4 0.8 -0.3
v 1.4 0.8 -0.4
v 1.4 0.8 -0.5
v 1.4 0.9 0
v 1.4 0.9 -0.1
v 1.4 0.9 -0.2
v 1.4 0.9 -0.3
v 1.4 0.9 -0.4
v 1.4 0.9 -0.5
v 1.1 0.8 0
v 1.1 0.8 -0.1
v 1.1 0.8 -0.2
v 1.1 0.8 -0.3
v 1.1 0.8 -0.4
v 1.1 0.8 -0.5
v 1.1 0.9 0
v 1.1 0.9 -0.1
v 1.1 0.9 -0.2
v 1.1 0.9 -0.3
v 1.1 0.9 -0.4
v 1.1 0.9 -0.5
v 1.5 0.4 0
v 1.5 0.4 -0.6
v 1.5 0.8 -0.1
v 1.5 0.8 -0.2
v 1.5 0.8 -0.3
v 1.5 0.8 -0.4
v 1.5 0.8 -0.5
v 1.5 0.8 -0.6
v 1.5 0.9 0
v 1.5 0.9 -0.1
v 1.5 0.9 -0.2
v 1.5 0.9 -0.3
v 1.5 0.9 -0.4
v 1.5 0.9 -0.5
v 2.5 0 0
v 2.5 0 -2.5
v 2.5 0.4 0
v 2.5 0.4 -2.5
v 0 0 0
v 0 0.4 0
v 1 0.4 0
v 1 0.9 0
v 1.1 0.7 0
v 1.1 0.8 0
v 1.1 0.9 0
v 1.4 0.7 0
v 1.4 0.8 0
v 1.4 0.9 0
v 1.5 0.4 0
v 1.5 0.9 0
v 2.5 0 0
v 2.5 0.4 0
v 1 0.8 -0.2
v 1 0.9 -0.2
v 1.1 0.8 -0.2
v 1.1 0.9 -0.2
v 1.4 0.8 -0.2
v 1.4 0.9 -0.2
v 1.5 0.8 -0.2
v 1.5 0.9 -0.2
v 1 0.8 -0.4
v 1 0.9 -0.4
v 1.1 0.8 -0.4
v 1.1 0.9 -0.4
v 1.4 0.8 -0.4
v 1.4 0.9 -0.4
v 1.5 0.8 -0.4
v 1.5 0.9 -0.4
v 1 0.8 -0.1
v 1 0.9 -0.1
v 1.1 0.8 -0.1
v 1.1 0.9 -0.1
v 1.4 0.8 -0.1
v 1.4 0.9 -0.1
v 1.5 0.8 -0.1
v 1.5 0.9 -0.1
v 1 0.8 -0.3
v 1 0.9 -0.3
v 1.1 0.8 -0.3
v 1.1 0.9 -0.3
v 1.4 0.8 -0.3
v 1.4 0.9 -0.3
v 1.5 0.8 -0.3
v 1.5 0.9 -0.3
v 1 0.8 -0.5
v 1 0.9 -0.5
v 1.1 0.8 -0.5
v 1.1 0.9 -0.5
v 1.4 0.8 -0.5
v 1.4 0.9 -0.5
v 1.5 0.8 -0.5
v 1.5 0.9 -0.5
v 1 0.4 -0.6
v 1 0.8 -0.6
v 1.1 0.7 -0.6
v 1.1 0.8 -0.6
v 1.4 0.7 -0.6
v 1.4 0.8 -0.6
v 1.5 0.4 -0.6
v 1.5 0.8 -0.6
v 0 0 -2.5
v 0 0.4 -2.5
v 2.5 0 -2.5
v 2.5 0.4 -2.5
v 0 0 0
v 2.5 0 0
v 0 0 -2.5
v 2.5 0 -2.5
v 0 0.4 0
v 1 0.4 0
v 1.5 0.4 0
v 2.5 0.4 0
v 1 0.4 -0.6
v 1.5 0.4 -0.6
v 0 0.4 -2.5
v 2.5 0.4 -2.5
v 1.1 0.8 0
v 1.4 0.8 0
v 1 0.8 -0.1
v 1.1 0.8 -0.1
v 1.4 0.8 -0.1
v 1.5 0.8 -0.1
v 1 0.8 -0.2
v 1.1 0.8 -0.2
v 1.4 0.8 -0.2
v 1.5 0.8 -0.2
v 1 0.8 -0.3
v 1.1 0.8 -0.3
v 1.4 0.8 -0.3
v 1.5 0.8 -0.3
v 1 0.8 -0.4
v 1.1 0.8 -0.4
v 1.4 0.8 -0.4
v 1.5 0.8 -0.4
v 1 0.8 -0.5
v 1.1 0.8 -0.5
v 1.4 0.8 -0.5
v 1.5 0.8 -0.5
v 1 0.8 -0.6
v 1.1 0.8 -0.6
v 1.4 0.8 -0.6
v 1.5 0.8 -0.6
v 1 0.9 0
v 1.1 0.9 0
v 1.4 0.9 0
v 1.5 0.9 0
v 1 0.9 -0.1
v 1.1 0.9 -0.1
v 1.4 0.9 -0.1
v 1.5 0.9 -0.1
v 1 0.9 -0.2
v 1.1 0.9 -0.2
v 1.4 0.9 -0.2
v 1.5 0.9 -0.2
v 1 0.9 -0.3
v 1.1 0.9 -0.3
v 1.4 0.9 -0.3
v 1.5 0.9 -0.3
v 1 0.9 -0.4
v 1.1 0.9 -0.4
v 1.4 0.9 -0.4
v 1.5 0.9 -0.4
v 1 0.9 -0.5
v 1.1 0.9 -0.5
v 1.4 0.9 -0.5
v 1.5 0.9 -0.5

# faces
f 3/1/1 2/1/1 1/1/1
f 4/1/1 2/1/1 3/1/1
f 7/2/1 6/2/1 5/2/1
f 8/2/1 6/2/1 7/2/1
f 9/2/1 6/2/1 8/2/1
f 10/2/1 6/2/1 9/2/1
f 11/2/1 6/2/1 10/2/1
f 12/2/1 6/2/1 11/2/1
f 13/2/1 7/2/1 5/2/1
f 14/2/1 7/2/1 13/2/1
f 15/2/1 9/2/1 8/2/1
f 16/2/1 9/2/1 15/2/1
f 17/2/1 11/2/1 10/2/1
f 18/2/1 11/2/1 17/2/1
f 25/2/1 20/2/1 19/2/1
f 26/2/1 20/2/1 25/2/1
f 27/2/1 22/2/1 21/2/1
f 28/2/1 22/2/1 27/2/1
f 29/2/1 24/2/1 23/2/1
f 30/2/1 24/2/1 29/2/1
f 31/2/2 32/2/2 37/2/2
f 37/2/2 32/2/2 38/2/2
f 33/2/2 34/2/2 39/2/2
f 39/2/2 34/2/2 40/2/2
f 35/2/2 36/2/2 41/2/2
f 41/2/2 36/2/2 42/2/2
f 43/2/2 44/2/2 45/2/2
f 45/2/2 44/2/2 46/2/2
f 46/2/2 44/2/2 47/2/2
f 47/2/2 44/2/2 48/2/2
f 48/2/2 44/2/2 49/2/2
f 49/2/2 44/2/2 50/2/2
f 43/2/2 45/2/2 51/2/2
f 51/2/2 45/2/2 52/2/2
f 46/2/2 47/2/2 53/2/2
f 53/2/2 47/2/2 54/2/2
f 48/2/2 49/2/2 55/2/2
f 55/2/2 49/2/2 56/2/2
f 57/1/2 58/1/2 59/1/2
f 59/1/2 58/1/2 60/1/2
f 63/1/3 62/1/3 61/1/3
f 65/2/3 64/2/3 63/2/3
f 66/2/3 64/2/3 65/2/3
f 67/2/3 64/2/3 66/2/3
f 68/2/3 65/2/3 63/2/3
f 68/3/3 66/3/3 65/3/3
f 69/3/3 66/3/3 68/3/3
f 71/1/3 63/1/3 61/1/3
f 71/2/3 70/2/3 69/2/3
f 71/2/3 69/2/3 68/2/3
f 71/2/3 68/2/3 63/2/3
f 72/2/3 70/2/3 71/2/3
f 73/1/3 71/1/3 61/1/3
f 74/1/3 71/1/3 73/1/3
f 77/2/3 76/2/3 75/2/3
f 78/2/3 76/2/3 77/2/3
f 81/2/3 80/2/3 79/2/3
f 82/2/3 80/2/3 81/2/3
f 85/2/3 84/2/3 83/2/3
f 86/2/3 84/2/3 85/2/3
f 89/2/3 88/2/3 87/2/3
f 90/2/3 88/2/3 89/2/3
f 91/2/4 92/2/4 93/2/4
f 93/2/4 92/2/4 94/2/4
f 95/2/4 96/2/4 97/2/4
f 97/2/4 96/2/4 98/2/4
f 99/2/4 100/2/4 101/2/4
f 101/2/4 100/2/4 102/2/4
f 103/2/4 104/2/4 105/2/4
f 105/2/4 104/2/4 106/2/4
f 107/2/4 108/2/4 109/2/4
f 109/2/4 108/2/4 110/2/4
f 111/2/4 112/2/4 113/2/4
f 113/2/4 112/2/4 114/2/4
f 115/2/4 116/2/4 117/2/4
f 117/2/4 116/2/4 118/2/4
f 115/2/4 117/2/4 119/2/4
f 117/3/4 118/3/4 119/3/4
f 119/3/4 118/3/4 120/3/4
f 115/2/4 119/2/4 121/2/4
f 119/2/4 120/2/4 121/2/4
f 121/2/4 120/2/4 122/2/4
f 123/1/4 124/1/4 125/1/4
f 125/1/4 124/1/4 126/1/4
f 129/1/5 128/1/5 127/1/5
f 130/1/5 128/1/5 129/1/5
f 131/1/6 132/1/6 135/1/6
f 133/1/6 134/1/6 136/1/6
f 131/1/6 135/1/6 137/1/6
f 135/1/6 136/1/6 137/1/6
f 136/1/6 134/1/6 138/1/6
f 137/1/6 136/1/6 138/1/6
f 139/3/6 140/3/6 142/3/6
f 142/3/6 140/3/6 143/3/6
f 141/2/6 142/2/6 145/2/6
f 142/3/6 143/3/6 146/3/6
f 145/2/6 142/2/6 146/2/6
f 143/2/6 144/2/6 147/2/6
f 146/3/6 143/3/6 147/3/6
f 147/2/6 144/2/6 148/2/6
f 146/3/6 147/3/6 150/3/6
f 150/3/6 147/3/6 151/3/6
f 149/2/6 150/2/6 153/2/6
f 150/3/6 151/3/6 154/3/6
f 153/2/6 150/2/6 154/2/6
f 151/2/6 152/2/6 155/2/6
f 154/3/6 151/3/6 155/3/6
f 155/2/6 152/2/6 156/2/6
f 154/3/6 155/3/6 158/3/6
f 158/3/6 155/3/6 159/3/6
f 157/2/6 158/2/6 161/2/6
f 158/3/6 159/3/6 162/3/6
f 161/2/6 158/2/6 162/2/6
f 159/2/6 160/2/6 163/2/6
f 162/3/6 159/3/6 163/3/6
f 163/2/6 160/2/6 164/2/6
f 165/2/6 166/2/6 169/2/6
f 169/2/6 166/2/6 170/2/6
f 167/2/6 168/2/6 171/2/6
f 171/2/6 168/2/6 172/2/6
f 173/2/6 174/2/6 177/2/6
f 177/2/6 174/2/6 178/2/6
f 175/2/6 176/2/6 179/2/6
f 179/2/6 176/2/6 180/2/6
f 181/2/6 182/2/6 185/2/6
f 185/2/6 182/2/6 186/2/6
f 183/2/6 184/2/6 187/2/6
f 187/2/6 184/2/6 188/2/6
